PathFileType	4	(X/Y/Z)	/Users/itak/Documents/Research/Walk-IL/dataset/trc/00240_00009.trc
DataRate	CameraRate	NumFrames	NumMarkers	Units	OrigDataRate	OrigDataStartFrame	OrigNumFrames
100.000000	100.000000	4	54	mm	100.000000	322	861
Frame#	Time	RPSI			LPSI			L3			STRN			T10			C7			CLAV			RBAK			LBAK			LSHO			LUPA			LAEL			LAOL			LWTS			LWPS			LFRA			LIFD			LHPS			LHTS			RSHO			RUPA			RAEL			RAOL			RWTS			RWPS			RFRA			RIFD			RHTS			RHPS			RBHD			LFHD			RFHD			LBHD			LHIP			RHIP			RASI			LASI			LKNE			LTHI			LANK			LTIP			LTOE			LMT1			LHEE			RKNE			RTHI			RANK			RTIP			RTOE			RMT1			RMT5			RHEE			LMT5			*53			
		X1	Y1	Z1	X2	Y2	Z2	X3	Y3	Z3	X4	Y4	Z4	X5	Y5	Z5	X6	Y6	Z6	X7	Y7	Z7	X8	Y8	Z8	X9	Y9	Z9	X10	Y10	Z10	X11	Y11	Z11	X12	Y12	Z12	X13	Y13	Z13	X14	Y14	Z14	X15	Y15	Z15	X16	Y16	Z16	X17	Y17	Z17	X18	Y18	Z18	X19	Y19	Z19	X20	Y20	Z20	X21	Y21	Z21	X22	Y22	Z22	X23	Y23	Z23	X24	Y24	Z24	X25	Y25	Z25	X26	Y26	Z26	X27	Y27	Z27	X28	Y28	Z28	X29	Y29	Z29	X30	Y30	Z30	X31	Y31	Z31	X32	Y32	Z32	X33	Y33	Z33	X34	Y34	Z34	X35	Y35	Z35	X36	Y36	Z36	X37	Y37	Z37	X38	Y38	Z38	X39	Y39	Z39	X40	Y40	Z40	X41	Y41	Z41	X42	Y42	Z42	X43	Y43	Z43	X44	Y44	Z44	X45	Y45	Z45	X46	Y46	Z46	X47	Y47	Z47	X48	Y48	Z48	X49	Y49	Z49	X50	Y50	Z50	X51	Y51	Z51	X52	Y52	Z52	X53	Y53	Z53	X54	Y54	Z54	

323	3.22	-524.1685180664062	1018.229858398438	76.33134460449219	-643.6354370117188	1026.306762695312	61.16105270385742	-591.723876953125	1108.995239257812	73.04685974121094	-558.101318359375	1287.660888671875	-172.2519836425781	-577.3292846679688	1235.490356445312	81.79695892333984	-560.5720825195312	1495.427368164062	13.34940814971924	-552.2699584960938	1405.614013671875	-148.5001525878906	-501.6347045898438	1355.484130859375	100.8998870849609	-673.2651977539062	1463.649291992188	25.8253231048584	-723.56201171875	1467.535278320312	-66.62565612792969	-813.2483520507812	1359.501831054688	-31.08870506286621	-870.3904418945312	1158.201538085938	-18.56736755371094	-815.9913940429688	1133.857421875	45.98977661132812	-853.1021728515625	937.3173217773438	-141.3422393798828	-930.5739135742188	924.3743286132812	-107.4516372680664	-900.7725219726562	1056.643798828125	-47.17782211303711	-893.14111328125	754.1611328125	-187.26611328125	-942.4188232421875	844.2713623046875	-144.2498321533203	-894.858642578125	852.7056274414062	-193.4346618652344	-390.5315246582031	1442.913208007812	-29.52556800842285	-328.4486083984375	1376.479858398438	-1.511383891105652	-299.882080078125	1096.599853515625	32.38641357421875	-391.7923889160156	1092.172119140625	58.86021041870117	-332.2403259277344	880.8955078125	-103.6778564453125	-274.9190673828125	866.3795776367188	-43.04235458374023	-286.3112182617188	1027.493286132812	9.028127670288086	-335.9071350097656	685.9378051757812	-115.5364990234375	-313.4625854492188	758.4158325195312	-137.8213806152344	-270.8631896972656	759.0758056640625	-79.13655853271484	-508.0382385253906	1656.37646484375	-39.211669921875	-540.18212890625	1666.280151367188	-264.1261901855469	-444.4518127441406	1659.241943359375	-235.0298004150391	-622.1586303710938	1663.328735351562	-121.369270324707	-766.1716918945312	974.7628784179688	-67.15001678466797	-404.4238586425781	974.4192504882812	-3.546231985092163	-421.9631652832031	1020.660461425781	-104.6518630981445	-698.4029541015625	1017.352783203125	-152.0977020263672	-688.7099609375	524.660400390625	-254.0915222167969	-729.7999267578125	653.3851318359375	-200.6721496582031	-694.5890502929688	31.72210502624512	-273.2247924804688	-700.9976196289062	291.7571411132812	-263.9403686523438	-551.7977905273438	67.02716064453125	-433.6342163085938	-542.4564208984375	56.96823501586914	-355.6396789550781	-675.55126953125	42.32373428344727	-195.4162750244141	-488.6215209960938	495.3385925292969	26.01252174377441	-413.1630554199219	747.98388671875	-39.60155487060547	-563.3330078125	69.33873748779297	275.1559448242188	-521.8333129882812	378.1338806152344	60.34246826171875	-662.0643920898438	42.79743194580078	89.61490631103516	-685.1498413085938	51.16564178466797	152.7384338378906	-567.03466796875	40.64506912231445	166.4153289794922	-603.3739013671875	100.4594802856445	345.6705322265625	-648.06640625	33.56222152709961	-392.5506591796875	nan	nan	nan	
324	3.23	-524.9740600585938	1019.038635253906	68.95706939697266	-644.1807250976562	1027.247192382812	52.50662994384766	-592.471923828125	1109.750610351562	64.89417266845703	-556.2222900390625	1288.942260742188	-179.6125335693359	-578.7352294921875	1236.430908203125	74.09422302246094	-561.6082153320312	1496.4404296875	6.190508842468262	-550.8819580078125	1406.854614257812	-155.5921783447266	-503.8729248046875	1356.437255859375	94.40523529052734	-674.3848876953125	1464.520263671875	17.06656074523926	-723.48046875	1468.528686523438	-76.08797454833984	-813.5199584960938	1360.31591796875	-41.96575927734375	-870.3545532226562	1158.87744140625	-30.59574890136719	-816.3009643554688	1134.113403320312	34.15378189086914	-851.9344482421875	939.48193359375	-155.6733551025391	-929.4879150390625	925.8676147460938	-122.1331939697266	-900.3431396484375	1057.550659179688	-60.29574584960938	-891.4813232421875	756.88134765625	-204.2375183105469	-941.0175170898438	846.2774047851562	-160.0406646728516	-893.40673828125	855.51416015625	-209.0628356933594	-390.8887939453125	1444.2412109375	-34.14475250244141	-329.2112731933594	1377.8564453125	-5.134678363800049	-301.1639099121094	1098.122924804688	29.54983329772949	-393.6815795898438	1093.464721679688	53.87657165527344	-329.3289489746094	881.9966430664062	-106.8192977905273	-273.6112060546875	867.8304443359375	-44.65574264526367	-286.7848815917969	1029.033203125	6.668026447296143	-331.8897399902344	686.9992065429688	-118.2328567504883	-309.181396484375	759.5066528320312	-140.1133117675781	-268.1236572265625	760.5183715820312	-80.32015228271484	-508.5376586914062	1657.377807617188	-45.23601913452148	-537.950927734375	1667.905395507812	-270.503173828125	-442.571044921875	1661.053955078125	-240.2613220214844	-621.7288818359375	1664.29248046875	-128.8224945068359	-765.4685668945312	975.97607421875	-76.99994659423828	-404.3685913085938	975.0499877929688	-9.535263061523438	-421.5812683105469	1021.245788574219	-110.5202484130859	-696.9247436523438	1018.613586425781	-161.4373016357422	-687.5289306640625	525.2182006835938	-261.7135009765625	-728.064453125	654.6431884765625	-209.4348297119141	-694.8017578125	31.71233558654785	-273.5786437988281	-700.5101928710938	291.9178771972656	-268.3313598632812	-551.5270385742188	64.99672698974609	-434.2891845703125	-542.4663696289062	55.88850021362305	-356.1742553710938	-675.786865234375	42.69619750976562	-195.9231109619141	-487.5034484863281	495.3324279785156	16.6380615234375	-412.9753723144531	748.5806884765625	-46.53717041015625	-563.5848999023438	73.20208740234375	273.4225158691406	-520.523681640625	378.1066284179688	52.1087532043457	-661.8543701171875	42.87567520141602	89.36986541748047	-685.3217163085938	52.24370193481445	151.7421722412109	-567.318603515625	40.99269866943359	165.6739349365234	-603.8041381835938	106.8657302856445	342.5766296386719	-648.349853515625	32.98777389526367	-393.1545715332031	nan	nan	nan	
325	3.24	-525.78955078125	1019.902221679688	61.72272872924805	-644.7306518554688	1028.21728515625	43.94355773925781	-593.2642822265625	1110.690307617188	56.88592529296875	-554.2963256835938	1290.272216796875	-186.9084930419922	-580.091064453125	1237.486938476562	66.32057189941406	-562.5934448242188	1497.566528320312	-1.002891421318054	-549.4502563476562	1408.156372070312	-162.6688690185547	-505.9783630371094	1357.540161132812	87.87895202636719	-675.406494140625	1465.4921875	8.284124374389648	-723.3024291992188	1469.609497070312	-85.57234191894531	-813.6890869140625	1361.249877929688	-52.91848373413086	-870.2493286132812	1159.669067382812	-42.8875846862793	-816.7094116210938	1134.5048828125	22.17231941223145	-850.3416748046875	941.690185546875	-170.0950164794922	-928.0831909179688	927.4583740234375	-137.1497497558594	-899.7848510742188	1058.578857421875	-73.73752593994141	-889.0867309570312	759.5003662109375	-220.8502807617188	-939.1102905273438	848.2684936523438	-175.9809722900391	-891.28466796875	858.1807250976562	-224.66748046875	-391.2474365234375	1445.692993164062	-38.86208343505859	-329.9488525390625	1379.3857421875	-8.888095855712891	-302.3935852050781	1099.790649414062	26.68062210083008	-395.4453430175781	1094.916259765625	48.90785980224609	-326.4337158203125	883.3361206054688	-110.0325241088867	-272.3974609375	869.442138671875	-46.37102890014648	-287.2357177734375	1030.719116210938	4.261714458465576	-328.0542602539062	688.3125	-121.10009765625	-305.0395202636719	760.8635864257812	-142.522705078125	-265.5443725585938	762.153564453125	-81.65038299560547	-508.9765625	1658.447998046875	-51.33320236206055	-535.6469116210938	1669.544921875	-276.9241943359375	-440.6309509277344	1662.855590820312	-245.5307312011719	-621.2083129882812	1665.331298828125	-136.3439483642578	-764.7395629882812	977.2081298828125	-86.77700042724609	-404.3503112792969	975.75830078125	-15.33795261383057	-421.4998474121094	1021.723083496094	-116.0328674316406	-695.4451904296875	1019.931884765625	-170.6826324462891	-686.3617553710938	525.5421142578125	-268.7016296386719	-726.45654296875	655.6847534179688	-217.7101745605469	-694.9439086914062	31.78511810302734	-273.8222045898438	-699.9387817382812	291.9998168945312	-272.2379150390625	-551.1258544921875	63.29868698120117	-434.7470092773438	-542.3086547851562	54.98481750488281	-356.4937133789062	-675.9364013671875	42.94807434082031	-196.2758026123047	-485.9754028320312	495.2164306640625	6.595639705657959	-412.7219543457031	749.252685546875	-53.56880950927734	-563.7936401367188	77.43681335449219	271.3712768554688	-518.8121337890625	378.0625305175781	43.29414749145508	-661.6642456054688	42.96566390991211	89.20639801025391	-685.5025024414062	53.41170120239258	150.652099609375	-567.623046875	41.3658332824707	164.8522338867188	-604.1881713867188	113.7982025146484	338.9317626953125	-648.4686279296875	32.72755432128906	-393.5523681640625	nan	nan	nan	
326	3.25	-526.6423950195312	1020.796081542969	54.64969253540039	-645.3045654296875	1029.224609375	35.4744987487793	-594.1444702148438	1111.777221679688	49.02837371826172	-552.3140869140625	1291.61279296875	-194.1302337646484	-581.4430541992188	1238.608154296875	58.49203872680664	-563.5451049804688	1498.769409179688	-8.210030555725098	-547.9732055664062	1409.48046875	-169.7173309326172	-507.9719543457031	1358.755981445312	81.34725189208984	-676.34814453125	1466.526733398438	-0.5183349847793579	-723.02587890625	1470.737915039062	-95.07216644287109	-813.7590942382812	1362.26513671875	-63.94705581665039	-870.090087890625	1160.546997070312	-55.43923568725586	-817.248291015625	1135.002319335938	10.05579090118408	-848.3085327148438	943.9030151367188	-184.5705261230469	-926.348876953125	929.11328125	-152.4828796386719	-899.1033935546875	1059.6943359375	-87.4967041015625	-885.97216796875	761.9923706054688	-237.15185546875	-936.69921875	850.2245483398438	-192.0837554931641	-888.486083984375	860.6962890625	-240.2501831054688	-391.6143188476562	1447.226196289062	-43.65500640869141	-330.6681518554688	1381.023071289062	-12.75111103057861	-303.5246276855469	1101.56103515625	23.76479530334473	-397.0301208496094	1096.483764648438	43.99125289916992	-323.5843200683594	884.8744506835938	-113.3264999389648	-271.2616271972656	871.1710205078125	-48.22574234008789	-287.6351623535156	1032.511352539062	1.784698605537415	-324.4451904296875	689.8355712890625	-124.1454238891602	-301.0997619628906	762.4390869140625	-145.0708923339844	-263.1471252441406	763.9267578125	-83.17466735839844	-509.3584899902344	1659.560668945312	-57.49627685546875	-533.2639770507812	1671.156372070312	-283.3818969726562	-438.6276245117188	1664.603881835938	-250.8257446289062	-620.5923461914062	1666.414794921875	-143.9266967773438	-763.9841918945312	978.46240234375	-96.51463317871094	-404.4056701660156	976.5078735351562	-20.9604377746582	-421.6622314453125	1022.104248046875	-121.2047576904297	-693.9281005859375	1021.263000488281	-179.8285827636719	-685.1702270507812	525.6387329101562	-275.0288696289062	-724.99267578125	656.4631958007812	-225.4333343505859	-695.0224609375	31.92885208129883	-273.9891357421875	-699.267822265625	291.9881286621094	-275.6849060058594	-550.5935668945312	61.83283233642578	-435.075927734375	-542.0036010742188	54.1931266784668	-356.6636962890625	-675.9983520507812	43.11753463745117	-196.5036468505859	-484.0218811035156	494.9632873535156	-4.07252836227417	-412.3388671875	749.9691162109375	-60.65249633789062	-563.9694213867188	82.08193206787109	268.9696350097656	-516.6821899414062	378.0280151367188	33.93816757202148	-661.509765625	43.06071853637695	89.13199615478516	-685.6895751953125	54.68220520019531	149.4475250244141	-567.9486083984375	41.80385208129883	163.9599151611328	-604.5402221679688	121.2633819580078	334.7042236328125	-648.4305419921875	32.66570281982422	-393.7872009277344	nan	nan	nan	
